<svg width="16" height="12" viewBox="0 0 16 12" fill="none" xmlns="http://www.w3.org/2000/svg">
<path d="M4.69314 11.4158L0.898398 7.61999C0.724323 7.44607 0.586232 7.23954 0.492015 7.01222C0.397798 6.7849 0.349304 6.54124 0.349304 6.29517C0.349304 6.0491 0.397798 5.80544 0.492015 5.57811C0.586232 5.35079 0.724323 5.14427 0.898398 4.97034C1.24994 4.61932 1.72643 4.42215 2.22322 4.42215C2.72002 4.42215 3.1965 4.61932 3.54805 4.97034L5.92454 7.34465C5.97245 7.39229 6.03726 7.41903 6.10483 7.41903C6.17239 7.41903 6.23721 7.39229 6.28511 7.34465L12.4476 1.18216C12.7991 0.831134 13.2756 0.633972 13.7724 0.633972C14.2692 0.633972 14.7457 0.831134 15.0973 1.18216C15.2713 1.35609 15.4094 1.56261 15.5036 1.78993C15.5979 2.01725 15.6463 2.26091 15.6463 2.50699C15.6463 2.75306 15.5979 2.99672 15.5036 3.22404C15.4094 3.45136 15.2713 3.65789 15.0973 3.83181L7.51433 11.4158C7.14018 11.7899 6.63279 12 6.10373 12C5.57468 12 5.06729 11.7899 4.69314 11.4158Z" fill="white"/>
</svg>
